<?xml version="1.0" encoding="UTF-8"?>
<svg xmlns="http://www.w3.org/2000/svg" xmlns:xlink="http://www.w3.org/1999/xlink" width="165pt" height="79pt" viewBox="0 0 165 79" version="1.1">
<g id="surface1">
<path style=" stroke:none;fill-rule:nonzero;fill:rgb(41.960784%,77.254902%,14.509804%);fill-opacity:1;" d="M 35.058594 0 L 35.085938 0 C 35.847656 0.335938 36.5 0.875 37.074219 1.464844 C 37.554688 1.972656 38.015625 2.554688 38.144531 3.265625 C 38.308594 4.09375 38.269531 5.007812 37.835938 5.75 C 37.652344 6.089844 37.292969 6.285156 36.914062 6.320312 C 36.9375 5.019531 36.632812 3.75 36.214844 2.527344 C 36.328125 3.820312 36.5 5.117188 36.417969 6.417969 C 35.800781 6.351562 35.1875 6.058594 34.855469 5.511719 C 34.300781 4.640625 34.429688 3.535156 34.695312 2.585938 C 34.9375 1.746094 35.027344 0.871094 35.058594 0 Z M 35.058594 0 "/>
<path style=" stroke:none;fill-rule:nonzero;fill:rgb(41.960784%,77.254902%,14.509804%);fill-opacity:1;" d="M 25.789062 0.699219 C 26.84375 0.929688 27.761719 1.550781 28.691406 2.070312 C 30.84375 3.300781 32.785156 5.03125 33.910156 7.277344 C 34.710938 8.871094 35.109375 10.746094 34.683594 12.503906 C 34.449219 13.457031 33.882812 14.421875 32.921875 14.761719 C 32.519531 13.253906 32.164062 11.730469 31.582031 10.277344 C 31.128906 9.152344 30.605469 8.054688 30.050781 6.976562 C 29.71875 6.351562 29.386719 5.71875 28.949219 5.160156 C 29.015625 5.554688 29.203125 5.90625 29.347656 6.269531 C 30.0625 7.933594 30.777344 9.601562 31.265625 11.347656 C 31.597656 12.542969 31.839844 13.78125 31.804688 15.027344 C 30.648438 15 29.554688 14.476562 28.695312 13.71875 C 27.992188 13.097656 27.398438 12.324219 27.054688 11.441406 C 26.597656 10.292969 26.464844 9.046875 26.414062 7.824219 C 26.359375 6.488281 26.433594 5.152344 26.378906 3.820312 C 26.328125 2.761719 26.210938 1.683594 25.789062 0.699219 Z M 25.789062 0.699219 "/>
<path style=" stroke:none;fill-rule:nonzero;fill:rgb(41.960784%,77.254902%,14.509804%);fill-opacity:1;" d="M 10.019531 6.425781 C 11.390625 6.433594 12.847656 6.734375 13.910156 7.65625 C 14.566406 8.242188 15.082031 9.097656 15.007812 10.003906 C 15.007812 10.449219 14.929688 10.9375 14.574219 11.246094 C 14.230469 10.824219 13.984375 10.335938 13.683594 9.882812 C 13.25 9.191406 12.675781 8.597656 12.046875 8.085938 C 12.417969 8.78125 12.941406 9.378906 13.339844 10.054688 C 13.585938 10.46875 13.691406 10.957031 14.007812 11.328125 C 13.992188 11.464844 13.972656 11.597656 13.953125 11.734375 C 13.113281 11.757812 12.121094 11.648438 11.582031 10.914062 C 11 10.085938 10.902344 9.039062 10.65625 8.082031 C 10.546875 7.492188 10.246094 6.972656 10.019531 6.425781 Z M 10.019531 6.425781 "/>
<path style=" stroke:none;fill-rule:nonzero;fill:rgb(41.960784%,77.254902%,14.509804%);fill-opacity:1;" d="M 4.5625 12.398438 C 5.796875 12.109375 7.082031 12.152344 8.335938 12.3125 C 9.910156 12.527344 11.46875 12.925781 12.941406 13.539062 C 15.027344 14.390625 16.792969 16.089844 17.617188 18.207031 C 18.066406 19.339844 18.070312 20.710938 17.335938 21.726562 C 16.710938 21.277344 16.328125 20.585938 15.8125 20.027344 C 15.082031 19.238281 14.257812 18.546875 13.417969 17.878906 C 12.257812 16.96875 11.054688 16.109375 9.808594 15.320312 C 9.496094 15.128906 9.1875 14.914062 8.84375 14.789062 C 9.0625 15.074219 9.378906 15.261719 9.65625 15.484375 C 10.292969 15.96875 10.96875 16.402344 11.605469 16.886719 C 12.207031 17.492188 12.878906 18.027344 13.460938 18.65625 C 14.238281 19.488281 14.984375 20.351562 15.648438 21.273438 C 15.914062 21.644531 16.167969 22.035156 16.328125 22.464844 C 15.703125 22.878906 14.933594 22.996094 14.199219 22.941406 C 13.332031 22.878906 12.476562 22.648438 11.683594 22.285156 C 10.667969 21.820312 9.851562 21.003906 9.214844 20.09375 C 7.832031 18.125 7.121094 15.761719 5.691406 13.820312 C 5.335938 13.328125 4.886719 12.914062 4.5625 12.398438 Z M 4.5625 12.398438 "/>
<path style=" stroke:none;fill-rule:nonzero;fill:rgb(41.960784%,77.254902%,14.509804%);fill-opacity:1;" d="M 61.0625 12.828125 C 63.160156 12.296875 65.347656 12.226562 67.496094 12.363281 C 67.179688 13.070312 66.496094 13.496094 66.105469 14.15625 C 65.011719 15.902344 64.230469 17.824219 63.191406 19.601562 C 62.402344 20.90625 61.222656 21.996094 59.796875 22.546875 C 58.523438 23.042969 57.074219 23.03125 55.796875 22.558594 C 55.917969 22.019531 56.257812 21.566406 56.558594 21.117188 C 57.746094 19.511719 59.148438 18.082031 60.667969 16.796875 C 61.195312 16.324219 61.765625 15.894531 62.234375 15.363281 C 61.800781 15.574219 61.433594 15.890625 61.042969 16.171875 C 59.695312 17.195312 58.375 18.261719 57.105469 19.382812 C 56.4375 19.984375 55.761719 20.589844 55.238281 21.328125 C 55.117188 21.542969 54.878906 21.613281 54.664062 21.683594 C 54.140625 20.867188 53.960938 19.839844 54.214844 18.898438 C 54.601562 17.394531 55.609375 16.136719 56.71875 15.09375 C 57.921875 13.945312 59.46875 13.234375 61.0625 12.828125 Z M 61.0625 12.828125 "/>
<path style=" stroke:none;fill-rule:nonzero;fill:rgb(65.098039%,81.176471%,16.078431%);fill-opacity:1;" d="M 43.871094 1.734375 C 44.605469 1.308594 45.371094 0.914062 46.203125 0.722656 C 46.109375 1.398438 45.925781 2.058594 45.832031 2.738281 C 45.515625 5.089844 45.886719 7.484375 45.46875 9.828125 C 45.214844 11.546875 44.21875 13.121094 42.835938 14.152344 C 42.101562 14.699219 41.195312 15.109375 40.261719 14.984375 C 40.238281 14.21875 40.398438 13.464844 40.542969 12.722656 C 40.867188 11.171875 41.289062 9.640625 41.875 8.175781 C 42.382812 7.09375 42.835938 5.992188 43.304688 4.894531 C 42.472656 5.914062 41.914062 7.128906 41.378906 8.320312 C 40.796875 9.277344 40.464844 10.359375 40.109375 11.417969 C 39.742188 12.523438 39.453125 13.65625 39.066406 14.757812 C 37.996094 14.140625 37.367188 12.941406 37.265625 11.726562 C 37.101562 9.964844 37.636719 8.199219 38.476562 6.667969 C 39.074219 5.554688 39.984375 4.664062 40.929688 3.847656 C 41.851562 3.0625 42.832031 2.347656 43.871094 1.734375 Z M 43.871094 1.734375 "/>
<path style=" stroke:none;fill-rule:nonzero;fill:rgb(65.098039%,81.176471%,16.078431%);fill-opacity:1;" d="M 58.617188 7.375 C 59.617188 6.691406 60.855469 6.3125 62.066406 6.453125 C 61.464844 7.726562 61.40625 9.195312 60.746094 10.453125 C 60.488281 10.960938 60.085938 11.4375 59.53125 11.628906 C 59.050781 11.808594 58.523438 11.742188 58.039062 11.628906 C 58.5 10.21875 59.328125 8.96875 60.234375 7.808594 C 59.175781 8.867188 58.355469 10.128906 57.511719 11.359375 C 57.175781 10.785156 56.988281 10.101562 57.125 9.4375 C 57.292969 8.570312 57.910156 7.863281 58.617188 7.375 Z M 58.617188 7.375 "/>
<path style=" stroke:none;fill-rule:nonzero;fill:rgb(16.078431%,81.960784%,81.960784%);fill-opacity:1;" d="M 16.246094 4.683594 C 16.847656 4.835938 17.40625 5.109375 17.957031 5.390625 C 19.242188 6.058594 20.5 6.800781 21.601562 7.75 C 23.300781 9.195312 24.730469 11.042969 25.402344 13.199219 C 25.699219 14.1875 25.847656 15.257812 25.582031 16.269531 C 25.421875 16.871094 25.039062 17.441406 24.449219 17.679688 C 24.089844 16.929688 23.839844 16.132812 23.503906 15.375 C 22.898438 13.945312 22.125 12.601562 21.335938 11.273438 C 21.019531 10.785156 20.734375 10.257812 20.300781 9.863281 C 20.355469 10.1875 20.53125 10.46875 20.667969 10.761719 C 21.359375 12.121094 22.074219 13.472656 22.636719 14.890625 C 23.019531 15.851562 23.351562 16.84375 23.476562 17.871094 C 22.273438 17.933594 21.148438 17.332031 20.292969 16.519531 C 19.15625 15.433594 18.316406 14.015625 17.976562 12.472656 C 17.519531 10.511719 17.386719 8.492188 16.902344 6.539062 C 16.699219 5.914062 16.402344 5.324219 16.246094 4.683594 Z M 16.246094 4.683594 "/>
<path style=" stroke:none;fill-rule:nonzero;fill:rgb(16.078431%,81.960784%,81.960784%);fill-opacity:1;" d="M 52.375 6.359375 C 53.445312 5.664062 54.566406 5.003906 55.8125 4.683594 C 55.628906 5.378906 55.285156 6.015625 55.121094 6.714844 C 54.652344 8.632812 54.59375 10.628906 54.097656 12.542969 C 53.714844 14.089844 52.886719 15.535156 51.710938 16.613281 C 50.875 17.386719 49.773438 17.917969 48.621094 17.894531 C 48.800781 16.363281 49.421875 14.933594 50.035156 13.539062 C 50.804688 11.828125 51.699219 10.179688 52.640625 8.558594 C 50.925781 10.824219 49.40625 13.265625 48.382812 15.929688 C 48.152344 16.511719 47.921875 17.097656 47.640625 17.660156 C 46.929688 17.441406 46.589844 16.6875 46.492188 16 C 46.28125 14.597656 46.574219 13.152344 47.179688 11.882812 C 47.667969 10.851562 48.265625 9.859375 49.070312 9.046875 C 50.066406 8.03125 51.195312 7.148438 52.375 6.359375 Z M 52.375 6.359375 "/>
<path style=" stroke:none;fill-rule:nonzero;fill:rgb(16.078431%,81.960784%,81.960784%);fill-opacity:1;" d="M 3.972656 33.359375 C 4.847656 32.910156 5.800781 32.601562 6.777344 32.464844 C 8.09375 32.269531 9.503906 32.753906 10.414062 33.734375 C 10.914062 34.265625 11.167969 35.007812 11.101562 35.734375 C 10.203125 35.496094 9.390625 35.039062 8.511719 34.746094 C 7.867188 34.523438 7.1875 34.367188 6.5 34.359375 C 6.664062 34.484375 6.84375 34.585938 7.03125 34.660156 C 8.027344 35.074219 9.097656 35.292969 10.039062 35.832031 C 10.328125 35.992188 10.582031 36.207031 10.804688 36.453125 C 10.589844 36.867188 10.261719 37.230469 9.820312 37.402344 C 9.054688 37.722656 8.175781 37.621094 7.417969 37.332031 C 6.664062 37.046875 6.054688 36.5 5.449219 35.984375 C 4.664062 35.304688 3.859375 34.605469 2.878906 34.222656 C 3.144531 33.828125 3.566406 33.585938 3.972656 33.359375 Z M 3.972656 33.359375 "/>
<path style=" stroke:none;fill-rule:nonzero;fill:rgb(16.078431%,81.960784%,81.960784%);fill-opacity:1;" d="M 61.761719 33.621094 C 62.777344 32.597656 64.328125 32.222656 65.722656 32.488281 C 66.976562 32.722656 68.0625 33.429688 69.179688 34.003906 C 68.773438 34.480469 68.191406 34.746094 67.703125 35.121094 C 66.761719 35.816406 65.996094 36.746094 64.933594 37.265625 C 64.050781 37.734375 62.945312 37.734375 62.066406 37.269531 C 61.722656 37.089844 61.457031 36.792969 61.277344 36.449219 C 61.628906 36.09375 62.058594 35.835938 62.496094 35.605469 C 63.667969 34.996094 64.929688 34.570312 66.207031 34.257812 C 64.898438 34.28125 63.636719 34.695312 62.429688 35.179688 C 61.9375 35.367188 61.457031 35.601562 60.9375 35.722656 C 60.910156 34.945312 61.207031 34.167969 61.761719 33.621094 Z M 61.761719 33.621094 "/>
<path style=" stroke:none;fill-rule:nonzero;fill:rgb(12.54902%,68.627451%,67.843137%);fill-opacity:1;" d="M 1.542969 23.167969 C 3.066406 22.941406 4.613281 22.898438 6.148438 22.953125 C 7.992188 23 9.847656 23.453125 11.433594 24.414062 C 12.660156 25.160156 13.734375 26.242188 14.261719 27.601562 C 14.449219 28.109375 14.601562 28.71875 14.289062 29.210938 C 12.964844 28.335938 11.5625 27.589844 10.128906 26.917969 C 8.238281 26.042969 6.324219 25.222656 4.351562 24.5625 C 5.152344 24.890625 5.941406 25.230469 6.726562 25.59375 C 9.179688 26.75 11.617188 28.074219 13.554688 30.015625 C 12.855469 30.46875 12.039062 30.710938 11.210938 30.746094 C 9.90625 30.796875 8.5625 30.585938 7.425781 29.910156 C 5.003906 28.542969 3.507812 26.070312 1.289062 24.445312 C 0.84375 24.195312 0.429688 23.894531 0 23.617188 L 0 23.578125 C 0.492188 23.363281 1.015625 23.246094 1.542969 23.167969 Z M 1.542969 23.167969 "/>
<path style=" stroke:none;fill-rule:nonzero;fill:rgb(12.54902%,68.627451%,67.843137%);fill-opacity:1;" d="M 60.96875 24.261719 C 62.5 23.453125 64.226562 23.0625 65.945312 22.949219 C 67.988281 22.816406 70.039062 23.066406 72.027344 23.527344 C 71.523438 23.992188 70.902344 24.300781 70.378906 24.734375 C 68.964844 25.878906 67.828125 27.3125 66.496094 28.542969 C 65.464844 29.492188 64.253906 30.304688 62.871094 30.601562 C 61.804688 30.824219 60.675781 30.878906 59.617188 30.589844 C 59.21875 30.480469 58.847656 30.285156 58.535156 30.011719 C 59.40625 29.066406 60.523438 28.40625 61.601562 27.722656 C 62.882812 26.953125 64.191406 26.214844 65.578125 25.652344 C 65.675781 25.617188 65.757812 25.5625 65.828125 25.488281 C 65.589844 25.441406 65.34375 25.441406 65.113281 25.527344 C 64.382812 25.769531 63.695312 26.109375 62.984375 26.394531 C 61.808594 26.886719 60.675781 27.484375 59.613281 28.191406 C 59.027344 28.558594 58.453125 28.949219 57.828125 29.242188 C 57.457031 28.535156 57.648438 27.695312 58.007812 27.03125 C 58.65625 25.808594 59.769531 24.902344 60.96875 24.261719 Z M 60.96875 24.261719 "/>
<path style=" stroke:none;fill-rule:nonzero;fill:rgb(16.862745%,81.176471%,83.137255%);fill-opacity:1;" d="M 38.617188 24.515625 C 39.066406 24.863281 39.332031 25.386719 39.527344 25.90625 C 40.046875 27.355469 40.195312 28.945312 39.890625 30.457031 C 39.394531 33.023438 38.300781 35.421875 37.152344 37.746094 L 37.089844 37.761719 C 36.066406 37.710938 35.042969 37.75 34.019531 37.738281 C 34.902344 36.324219 35.785156 34.914062 36.667969 33.5 C 37.175781 32.648438 37.582031 31.742188 37.957031 30.824219 C 38.359375 29.800781 38.765625 28.753906 38.855469 27.644531 C 38.949219 26.59375 38.761719 25.550781 38.617188 24.515625 Z M 38.617188 24.515625 "/>
<path style=" stroke:none;fill-rule:nonzero;fill:rgb(16.470588%,79.607843%,82.745098%);fill-opacity:1;" d="M 26.757812 30.164062 C 27.253906 29.414062 28.019531 28.78125 28.933594 28.664062 C 29.808594 28.539062 30.679688 28.949219 31.273438 29.574219 C 32.445312 30.816406 32.835938 32.621094 32.707031 34.289062 C 30.402344 34.296875 28.101562 34.304688 25.800781 34.285156 C 25.6875 32.859375 25.957031 31.363281 26.757812 30.164062 Z M 26.757812 30.164062 "/>
<path style=" stroke:none;fill-rule:nonzero;fill:rgb(16.470588%,79.607843%,82.745098%);fill-opacity:1;" d="M 157.53125 51.40625 C 157.882812 51.234375 158.296875 51.3125 158.675781 51.328125 C 159.933594 51.457031 161.203125 51.5 162.46875 51.40625 C 163.132812 51.371094 163.796875 51.253906 164.460938 51.320312 C 164.703125 51.335938 164.875 51.515625 165 51.707031 L 165 51.867188 L 165 51.789062 C 164.863281 51.941406 164.71875 52.109375 164.503906 52.128906 C 164.050781 52.1875 163.601562 52.328125 163.242188 52.617188 C 162.6875 52.503906 162.125 52.570312 161.566406 52.554688 C 160.769531 52.5625 159.972656 52.53125 159.179688 52.578125 C 158.699219 52.253906 158.089844 52.34375 157.578125 52.109375 C 157.289062 51.996094 157.238281 51.542969 157.53125 51.40625 Z M 157.53125 51.40625 "/>
<path style=" stroke:none;fill-rule:nonzero;fill:rgb(15.686275%,70.980392%,78.431373%);fill-opacity:1;" d="M 25.800781 34.285156 C 28.101562 34.304688 30.402344 34.296875 32.707031 34.289062 C 32.667969 34.683594 32.59375 35.074219 32.5 35.460938 C 31.949219 35.453125 31.398438 35.433594 30.851562 35.476562 C 30.367188 35.523438 29.886719 35.433594 29.402344 35.445312 C 29 35.433594 28.597656 35.511719 28.195312 35.488281 C 27.464844 35.417969 26.734375 35.460938 26.003906 35.457031 C 25.90625 35.070312 25.839844 34.679688 25.800781 34.285156 Z M 25.800781 34.285156 "/>
<path style=" stroke:none;fill-rule:nonzero;fill:rgb(15.686275%,70.980392%,78.431373%);fill-opacity:1;" d="M 160.066406 53.75 C 160.855469 53.730469 161.644531 53.714844 162.433594 53.757812 C 162.277344 54.1875 162.191406 54.640625 162.140625 55.097656 C 161.558594 55.101562 160.972656 55.109375 160.390625 55.101562 C 160.324219 54.640625 160.230469 54.183594 160.066406 53.75 Z M 160.066406 53.75 "/>
<path style=" stroke:none;fill-rule:nonzero;fill:rgb(14.509804%,61.176471%,73.72549%);fill-opacity:1;" d="M 26.003906 35.457031 C 26.734375 35.460938 27.464844 35.417969 28.195312 35.488281 C 28.597656 35.511719 29 35.433594 29.402344 35.445312 C 29.886719 35.433594 30.367188 35.523438 30.851562 35.476562 C 31.398438 35.433594 31.949219 35.453125 32.5 35.460938 C 32.402344 35.78125 32.300781 36.105469 32.152344 36.40625 C 30.238281 36.382812 28.324219 36.390625 26.410156 36.402344 L 26.347656 36.386719 C 26.1875 36.097656 26.105469 35.769531 26.003906 35.457031 Z M 26.003906 35.457031 "/>
<path style=" stroke:none;fill-rule:nonzero;fill:rgb(14.509804%,61.176471%,73.72549%);fill-opacity:1;" d="M 99.078125 55.925781 C 100.539062 55.90625 102 55.9375 103.457031 55.914062 C 103.429688 56.703125 103.394531 57.488281 103.402344 58.277344 C 101.96875 58.273438 100.535156 58.269531 99.105469 58.277344 C 99.101562 57.492188 99.089844 56.710938 99.078125 55.925781 Z M 99.078125 55.925781 "/>
<path style=" stroke:none;fill-rule:nonzero;fill:rgb(13.333333%,49.411765%,67.843137%);fill-opacity:1;" d="M 26.410156 36.402344 C 28.324219 36.390625 30.238281 36.382812 32.152344 36.40625 C 31.734375 37.335938 31.019531 38.195312 30.03125 38.527344 C 29.195312 38.820312 28.242188 38.589844 27.570312 38.03125 C 27.0625 37.609375 26.632812 37.070312 26.390625 36.453125 Z M 26.410156 36.402344 "/>
<path style=" stroke:none;fill-rule:nonzero;fill:rgb(13.333333%,49.411765%,67.843137%);fill-opacity:1;" d="M 39.714844 65.753906 C 40.699219 65.023438 41.46875 64.027344 42.054688 62.953125 C 42.214844 63.074219 42.402344 63.136719 42.601562 63.121094 C 43.636719 63.109375 44.667969 63.125 45.703125 63.105469 C 45.003906 65.832031 43.460938 68.359375 41.257812 70.113281 C 39.761719 71.300781 37.925781 72.105469 36.007812 72.171875 C 34.265625 72.242188 32.535156 71.660156 31.117188 70.660156 C 28.710938 68.957031 27.085938 66.359375 26.011719 63.648438 C 27.84375 63.640625 29.675781 63.671875 31.507812 63.625 L 31.535156 63.621094 C 31.960938 64.261719 32.46875 64.847656 33 65.398438 C 33.929688 66.277344 35.164062 66.871094 36.457031 66.886719 C 37.632812 66.90625 38.777344 66.453125 39.714844 65.753906 Z M 39.714844 65.753906 "/>
<path style=" stroke:none;fill-rule:nonzero;fill:rgb(13.333333%,49.411765%,67.843137%);fill-opacity:1;" d="M 114.542969 67.042969 C 114.695312 66.777344 115.105469 66.714844 115.308594 66.953125 C 115.433594 67.171875 115.339844 67.4375 115.308594 67.667969 C 114.964844 69.203125 114.617188 70.738281 114.269531 72.273438 C 111.703125 72.257812 109.132812 72.28125 106.566406 72.226562 C 104.542969 72.191406 102.523438 72.027344 100.5 72.054688 C 99.230469 72.078125 97.964844 72.132812 96.699219 72.207031 C 96.464844 72.210938 96.210938 72.210938 96.015625 72.070312 C 95.777344 71.890625 95.816406 71.441406 96.109375 71.34375 C 96.421875 71.25 96.753906 71.300781 97.074219 71.25 C 97.664062 71.179688 98.285156 70.90625 98.558594 70.34375 C 98.964844 69.492188 98.9375 68.519531 99.027344 67.597656 C 99.15625 67.820312 99.070312 68.289062 99.417969 68.28125 C 100.441406 68.304688 101.464844 68.269531 102.488281 68.292969 C 102.792969 68.28125 103.140625 68.351562 103.394531 68.132812 C 103.433594 68.773438 103.34375 69.460938 103.625 70.058594 C 104.0625 70.832031 105.015625 71.019531 105.832031 71.070312 C 107.636719 71.15625 109.496094 71 111.179688 70.296875 C 112.164062 69.878906 113.0625 69.230469 113.714844 68.375 C 114.050781 67.972656 114.261719 67.484375 114.542969 67.042969 Z M 114.542969 67.042969 "/>
<path style=" stroke:none;fill-rule:nonzero;fill:rgb(16.470588%,78.823529%,81.960784%);fill-opacity:1;" d="M 34.019531 37.738281 C 35.042969 37.75 36.066406 37.710938 37.089844 37.761719 L 37.109375 37.816406 C 35.703125 40.726562 34.027344 43.5 32.589844 46.394531 C 31.855469 47.90625 31.164062 49.441406 30.601562 51.027344 C 30.417969 51.046875 30.234375 51.070312 30.050781 51.09375 C 29.648438 51.03125 29.246094 51.03125 28.847656 51.085938 C 28.09375 51.019531 27.339844 51.109375 26.589844 50.984375 L 26.566406 50.929688 C 26.960938 49.800781 27.515625 48.730469 28.058594 47.667969 C 28.863281 46.140625 29.753906 44.660156 30.652344 43.191406 C 31.773438 41.375 32.878906 39.546875 34.019531 37.738281 Z M 34.019531 37.738281 "/>
<path style=" stroke:none;fill-rule:nonzero;fill:rgb(16.470588%,78.823529%,81.960784%);fill-opacity:1;" d="M 117.160156 51.394531 C 117.324219 51.238281 117.570312 51.269531 117.777344 51.273438 C 118.957031 51.367188 120.132812 51.515625 121.316406 51.582031 C 122.214844 51.652344 123.113281 51.578125 124.015625 51.566406 C 125.34375 51.535156 126.675781 51.492188 128.003906 51.460938 C 130.019531 51.4375 132.039062 51.847656 133.894531 52.636719 C 134.378906 52.851562 134.859375 53.089844 135.296875 53.394531 C 134.832031 53.496094 134.355469 53.453125 133.886719 53.453125 C 133.007812 53.457031 132.132812 53.464844 131.257812 53.453125 C 131 53.445312 130.746094 53.476562 130.492188 53.519531 C 128.957031 52.546875 127.070312 52.347656 125.296875 52.53125 C 125.101562 52.554688 124.925781 52.644531 124.757812 52.738281 C 124.097656 52.675781 123.441406 52.820312 122.789062 52.726562 C 122.324219 52.816406 121.863281 52.675781 121.398438 52.738281 C 120.722656 52.789062 120.042969 52.699219 119.371094 52.777344 C 119.039062 52.453125 118.597656 52.261719 118.144531 52.195312 C 117.859375 52.136719 117.554688 52.171875 117.285156 52.054688 C 117.042969 51.945312 116.992188 51.585938 117.160156 51.394531 Z M 117.160156 51.394531 "/>
<path style=" stroke:none;fill-rule:nonzero;fill:rgb(16.078431%,76.078431%,80.784314%);fill-opacity:1;" d="M 37.789062 50.332031 C 39.097656 50.179688 40.46875 50.347656 41.648438 50.964844 C 42.515625 51.40625 43.257812 52.0625 43.863281 52.820312 C 43.828125 52.863281 43.753906 52.941406 43.722656 52.980469 C 43.261719 52.71875 42.710938 52.863281 42.210938 52.867188 C 41.589844 52.171875 40.800781 51.636719 39.976562 51.199219 C 39.28125 50.828125 38.488281 50.691406 37.789062 50.332031 Z M 37.789062 50.332031 "/>
<path style=" stroke:none;fill-rule:nonzero;fill:rgb(16.470588%,80%,82.745098%);fill-opacity:1;" d="M 65.433594 50.949219 C 65.804688 50.949219 66.179688 50.949219 66.550781 50.949219 C 66.742188 51.367188 66.933594 51.785156 67.113281 52.210938 C 66.402344 52.492188 65.625 52.375 64.886719 52.292969 C 65.066406 51.84375 65.25 51.398438 65.433594 50.949219 Z M 65.433594 50.949219 "/>
<path style=" stroke:none;fill-rule:nonzero;fill:rgb(16.078431%,75.686275%,80.392157%);fill-opacity:1;" d="M 26.53125 50.996094 L 26.589844 50.984375 C 27.339844 51.109375 28.09375 51.019531 28.847656 51.085938 C 29.246094 51.03125 29.648438 51.03125 30.050781 51.09375 C 30.234375 51.070312 30.417969 51.046875 30.601562 51.027344 C 30.414062 51.574219 30.238281 52.125 30.082031 52.683594 L 30.03125 52.679688 C 28.667969 52.636719 27.300781 52.675781 25.933594 52.652344 C 26.121094 52.097656 26.289062 51.53125 26.53125 50.996094 Z M 26.53125 50.996094 "/>
<path style=" stroke:none;fill-rule:nonzero;fill:rgb(16.078431%,75.686275%,80.392157%);fill-opacity:1;" d="M 159.179688 52.578125 C 159.972656 52.53125 160.769531 52.5625 161.566406 52.554688 C 162.125 52.570312 162.6875 52.503906 163.242188 52.617188 C 162.871094 52.914062 162.589844 53.3125 162.433594 53.757812 C 161.644531 53.714844 160.855469 53.730469 160.066406 53.75 C 159.890625 53.285156 159.59375 52.859375 159.179688 52.578125 Z M 159.179688 52.578125 "/>
<path style=" stroke:none;fill-rule:nonzero;fill:rgb(16.470588%,78.431373%,81.960784%);fill-opacity:1;" d="M 73.425781 51.441406 C 73.539062 51.355469 73.683594 51.335938 73.824219 51.332031 C 75.722656 51.371094 77.617188 51.53125 79.515625 51.472656 C 80.601562 51.457031 81.6875 51.394531 82.769531 51.339844 C 83.054688 51.332031 83.359375 51.296875 83.628906 51.429688 C 83.882812 51.542969 83.964844 51.976562 83.691406 52.121094 C 83.308594 52.320312 82.851562 52.265625 82.457031 52.433594 C 81.972656 52.582031 81.578125 52.964844 81.445312 53.460938 C 79.625 53.503906 77.800781 53.421875 75.980469 53.496094 L 75.921875 53.472656 C 75.617188 53.101562 75.347656 52.675781 74.914062 52.449219 C 74.488281 52.226562 74 52.234375 73.539062 52.148438 C 73.234375 52.074219 73.191406 51.617188 73.425781 51.441406 Z M 73.425781 51.441406 "/>
<path style=" stroke:none;fill-rule:nonzero;fill:rgb(16.470588%,78.431373%,81.960784%);fill-opacity:1;" d="M 87.558594 52.007812 C 87.390625 51.695312 87.664062 51.289062 88.015625 51.332031 C 89.371094 51.34375 90.722656 51.542969 92.082031 51.484375 C 92.957031 51.492188 93.824219 51.304688 94.703125 51.339844 C 95.101562 51.332031 95.253906 51.917969 94.949219 52.144531 C 94.71875 52.296875 94.429688 52.285156 94.171875 52.363281 C 93.625 52.492188 93.132812 52.800781 92.742188 53.203125 C 91.730469 53.179688 90.714844 53.183594 89.703125 53.207031 L 89.695312 53.207031 C 89.410156 52.730469 88.941406 52.316406 88.371094 52.265625 C 88.097656 52.222656 87.742188 52.261719 87.558594 52.007812 Z M 87.558594 52.007812 "/>
<path style=" stroke:none;fill-rule:nonzero;fill:rgb(16.470588%,78.431373%,81.960784%);fill-opacity:1;" d="M 142.011719 52.109375 C 141.714844 51.824219 141.988281 51.296875 142.390625 51.34375 C 144.316406 51.34375 146.246094 51.496094 148.175781 51.476562 C 149.347656 51.4375 150.519531 51.300781 151.691406 51.339844 C 151.964844 51.339844 152.34375 51.492188 152.28125 51.832031 C 152.21875 52.238281 151.726562 52.199219 151.421875 52.246094 C 150.695312 52.308594 149.996094 52.773438 149.746094 53.480469 C 148.679688 53.445312 147.613281 53.472656 146.546875 53.464844 C 145.835938 53.480469 145.125 53.433594 144.417969 53.496094 C 144.289062 53.078125 144.035156 52.675781 143.613281 52.511719 C 143.113281 52.25 142.511719 52.355469 142.011719 52.109375 Z M 142.011719 52.109375 "/>
<path style=" stroke:none;fill-rule:nonzero;fill:rgb(16.470588%,78.039216%,81.568627%);fill-opacity:1;" d="M 96.601562 52.320312 C 96.191406 52.203125 96.289062 51.515625 96.714844 51.503906 C 97.402344 51.472656 98.097656 51.539062 98.789062 51.546875 C 100.894531 51.636719 103.003906 51.605469 105.113281 51.621094 C 107.792969 51.628906 110.472656 51.636719 113.152344 51.648438 C 113.320312 52.464844 113.484375 53.28125 113.652344 54.101562 C 112.816406 54.097656 111.976562 54.046875 111.140625 54.132812 C 110.472656 53.511719 109.632812 53.085938 108.738281 52.914062 C 107.070312 52.582031 105.34375 52.652344 103.675781 52.929688 C 103.644531 53.195312 103.621094 53.464844 103.597656 53.734375 C 102.046875 53.722656 100.496094 53.730469 98.941406 53.730469 C 98.84375 53.398438 98.714844 53.039062 98.410156 52.84375 C 97.871094 52.492188 97.207031 52.46875 96.601562 52.320312 Z M 96.601562 52.320312 "/>
<path style=" stroke:none;fill-rule:nonzero;fill:rgb(16.078431%,74.509804%,80%);fill-opacity:1;" d="M 67.113281 52.210938 L 67.121094 52.207031 C 67.40625 52.871094 67.707031 53.527344 67.976562 54.195312 C 67.480469 54.21875 66.984375 54.246094 66.492188 54.199219 C 65.714844 54.140625 64.910156 54.371094 64.148438 54.128906 C 64.386719 53.511719 64.636719 52.902344 64.886719 52.292969 C 65.625 52.375 66.402344 52.492188 67.113281 52.210938 Z M 67.113281 52.210938 "/>
<path style=" stroke:none;fill-rule:nonzero;fill:rgb(15.294118%,69.803922%,77.647059%);fill-opacity:1;" d="M 25.144531 56.660156 C 25.242188 55.296875 25.535156 53.957031 25.933594 52.652344 C 27.300781 52.675781 28.667969 52.636719 30.03125 52.679688 L 30.085938 52.683594 C 29.703125 54.0625 29.460938 55.484375 29.449219 56.917969 C 28.027344 56.898438 26.605469 56.921875 25.183594 56.902344 C 25.171875 56.84375 25.15625 56.722656 25.144531 56.660156 Z M 25.144531 56.660156 "/>
<path style=" stroke:none;fill-rule:nonzero;fill:rgb(15.294118%,69.803922%,77.647059%);fill-opacity:1;" d="M 98.941406 53.730469 C 100.496094 53.730469 102.046875 53.722656 103.597656 53.734375 C 103.542969 54.460938 103.488281 55.1875 103.457031 55.914062 C 102 55.9375 100.539062 55.90625 99.078125 55.925781 C 99.058594 55.195312 99.0625 54.457031 98.941406 53.730469 Z M 98.941406 53.730469 "/>
<path style=" stroke:none;fill-rule:nonzero;fill:rgb(15.686275%,72.54902%,79.215686%);fill-opacity:1;" d="M 121.398438 52.738281 C 121.863281 52.675781 122.324219 52.816406 122.789062 52.726562 C 123.441406 52.820312 124.097656 52.675781 124.757812 52.738281 C 124.675781 52.875 124.625 53.027344 124.617188 53.1875 C 124.566406 53.855469 124.539062 54.523438 124.511719 55.191406 C 122.976562 55.179688 121.445312 55.1875 119.910156 55.191406 C 119.820312 54.375 119.855469 53.476562 119.371094 52.777344 C 120.042969 52.699219 120.722656 52.789062 121.398438 52.738281 Z M 121.398438 52.738281 "/>
<path style=" stroke:none;fill-rule:nonzero;fill:rgb(15.294118%,69.019608%,77.254902%);fill-opacity:1;" d="M 42.210938 52.867188 C 42.710938 52.863281 43.261719 52.71875 43.722656 52.980469 C 43.753906 52.941406 43.828125 52.863281 43.863281 52.820312 C 44.835938 54.066406 45.449219 55.566406 45.796875 57.105469 C 45.183594 57.078125 44.574219 57.101562 43.960938 57.097656 C 43.796875 57.109375 43.652344 57.03125 43.511719 56.957031 C 43.480469 55.511719 43.125 54.015625 42.210938 52.867188 Z M 42.210938 52.867188 "/>
<path style=" stroke:none;fill-rule:nonzero;fill:rgb(15.686275%,72.941176%,79.215686%);fill-opacity:1;" d="M 89.703125 53.207031 C 90.714844 53.183594 91.730469 53.179688 92.742188 53.203125 C 92.382812 53.617188 92.078125 54.078125 91.824219 54.5625 C 91.164062 54.550781 90.503906 54.5625 89.84375 54.550781 C 89.902344 54.101562 89.882812 53.632812 89.703125 53.207031 Z M 89.703125 53.207031 "/>
<path style=" stroke:none;fill-rule:nonzero;fill:rgb(15.686275%,71.764706%,78.823529%);fill-opacity:1;" d="M 135.296875 53.394531 L 135.3125 53.390625 C 135.9375 53.804688 136.519531 54.285156 137.019531 54.84375 C 136.984375 54.878906 136.914062 54.941406 136.878906 54.972656 C 135.277344 54.871094 133.671875 54.949219 132.070312 54.933594 C 131.621094 54.382812 131.085938 53.90625 130.492188 53.519531 C 130.746094 53.476562 131 53.445312 131.257812 53.453125 C 132.132812 53.464844 133.007812 53.457031 133.886719 53.453125 C 134.355469 53.453125 134.832031 53.496094 135.296875 53.394531 Z M 135.296875 53.394531 "/>
<path style=" stroke:none;fill-rule:nonzero;fill:rgb(15.686275%,69.803922%,78.039216%);fill-opacity:1;" d="M 75.980469 53.496094 C 77.800781 53.421875 79.625 53.503906 81.445312 53.460938 C 81.347656 54.285156 81.582031 55.09375 81.746094 55.894531 C 80.175781 55.933594 78.601562 55.894531 77.027344 55.917969 C 76.699219 55.109375 76.320312 54.320312 75.953125 53.53125 Z M 75.980469 53.496094 "/>
<path style=" stroke:none;fill-rule:nonzero;fill:rgb(15.686275%,70.196078%,78.039216%);fill-opacity:1;" d="M 144.417969 53.496094 C 145.125 53.433594 145.835938 53.480469 146.546875 53.464844 C 147.613281 53.472656 148.679688 53.445312 149.746094 53.480469 C 149.472656 54.21875 149.378906 55.011719 149.308594 55.792969 C 149.210938 55.8125 149.121094 55.8125 149.027344 55.828125 C 148.953125 55.835938 148.878906 55.84375 148.8125 55.851562 C 148.78125 55.835938 148.722656 55.800781 148.691406 55.78125 C 148.628906 55.808594 148.570312 55.839844 148.511719 55.867188 C 148.445312 55.847656 148.382812 55.832031 148.320312 55.8125 C 148.144531 55.90625 147.957031 55.910156 147.773438 55.847656 C 147.402344 55.910156 147.023438 55.898438 146.648438 55.894531 C 146.617188 55.871094 146.546875 55.828125 146.515625 55.808594 C 146.210938 55.910156 145.886719 55.929688 145.578125 55.832031 C 145.304688 55.910156 145.011719 55.90625 144.753906 55.78125 C 144.710938 55.011719 144.640625 54.234375 144.417969 53.496094 Z M 144.417969 53.496094 "/>
<path style=" stroke:none;fill-rule:nonzero;fill:rgb(15.294118%,67.843137%,76.862745%);fill-opacity:1;" d="M 64.144531 54.125 L 64.148438 54.128906 C 64.910156 54.371094 65.714844 54.140625 66.492188 54.199219 C 66.984375 54.246094 67.480469 54.21875 67.976562 54.195312 L 67.988281 54.195312 C 68.238281 54.839844 68.550781 55.460938 68.769531 56.113281 L 68.75 56.171875 C 67.484375 56.242188 66.214844 56.183594 64.945312 56.199219 C 64.410156 56.195312 63.875 56.238281 63.34375 56.140625 C 63.597656 55.464844 63.878906 54.796875 64.144531 54.125 Z M 64.144531 54.125 "/>
<path style=" stroke:none;fill-rule:nonzero;fill:rgb(15.294118%,67.843137%,76.862745%);fill-opacity:1;" d="M 89.84375 54.550781 C 90.503906 54.5625 91.164062 54.550781 91.824219 54.5625 C 91.609375 55.011719 91.402344 55.460938 91.207031 55.917969 C 90.636719 55.972656 90.058594 55.976562 89.492188 55.863281 C 89.640625 55.4375 89.773438 55 89.84375 54.550781 Z M 89.84375 54.550781 "/>
<path style=" stroke:none;fill-rule:nonzero;fill:rgb(15.294118%,68.235294%,77.254902%);fill-opacity:1;" d="M 111.140625 54.132812 C 111.976562 54.046875 112.816406 54.097656 113.652344 54.101562 C 113.804688 54.890625 113.972656 55.683594 114.121094 56.476562 C 114.167969 56.691406 114.023438 56.933594 113.792969 56.949219 C 113.488281 57.007812 113.277344 56.722656 113.117188 56.507812 C 112.535156 55.65625 111.894531 54.839844 111.140625 54.132812 Z M 111.140625 54.132812 "/>
<path style=" stroke:none;fill-rule:nonzero;fill:rgb(14.901961%,65.098039%,75.686275%);fill-opacity:1;" d="M 137.019531 54.84375 L 137.027344 54.839844 C 137.640625 55.519531 138.164062 56.28125 138.582031 57.101562 C 136.851562 57.097656 135.121094 57.085938 133.390625 57.113281 C 133.046875 56.332031 132.605469 55.59375 132.070312 54.933594 C 133.671875 54.949219 135.277344 54.871094 136.878906 54.972656 C 136.914062 54.941406 136.984375 54.878906 137.019531 54.84375 Z M 137.019531 54.84375 "/>
<path style=" stroke:none;fill-rule:nonzero;fill:rgb(14.901961%,65.098039%,75.686275%);fill-opacity:1;" d="M 119.910156 55.191406 C 121.445312 55.1875 122.976562 55.179688 124.511719 55.191406 C 124.488281 55.765625 124.460938 56.34375 124.445312 56.917969 C 122.957031 56.914062 121.464844 56.921875 119.976562 56.921875 C 119.96875 56.34375 119.945312 55.765625 119.910156 55.191406 Z M 119.910156 55.191406 "/>
<path style=" stroke:none;fill-rule:nonzero;fill:rgb(15.294118%,66.27451%,76.078431%);fill-opacity:1;" d="M 160.390625 55.101562 C 160.972656 55.109375 161.558594 55.101562 162.140625 55.097656 C 162.09375 55.582031 162.066406 56.074219 162.050781 56.5625 C 161.542969 56.558594 161.035156 56.5625 160.53125 56.558594 C 160.503906 56.070312 160.457031 55.585938 160.390625 55.101562 Z M 160.390625 55.101562 "/>
<path style=" stroke:none;fill-rule:nonzero;fill:rgb(14.901961%,62.745098%,74.117647%);fill-opacity:1;" d="M 144.753906 55.78125 C 145.011719 55.90625 145.304688 55.910156 145.578125 55.832031 C 145.886719 55.929688 146.210938 55.910156 146.515625 55.808594 C 146.546875 55.828125 146.617188 55.871094 146.648438 55.894531 C 147.023438 55.898438 147.402344 55.910156 147.773438 55.847656 C 147.957031 55.910156 148.144531 55.90625 148.320312 55.8125 C 148.382812 55.832031 148.445312 55.847656 148.511719 55.867188 C 148.570312 55.839844 148.628906 55.808594 148.691406 55.78125 C 148.722656 55.800781 148.78125 55.835938 148.8125 55.851562 C 148.878906 55.84375 148.953125 55.835938 149.027344 55.828125 C 149.121094 55.8125 149.210938 55.8125 149.308594 55.792969 C 149.269531 56.351562 149.238281 56.914062 149.210938 57.472656 C 147.734375 57.460938 146.257812 57.472656 144.78125 57.464844 C 144.789062 56.902344 144.78125 56.339844 144.753906 55.78125 Z M 144.753906 55.78125 "/>
<path style=" stroke:none;fill-rule:nonzero;fill:rgb(14.901961%,63.529412%,74.901961%);fill-opacity:1;" d="M 89.480469 55.863281 L 89.492188 55.863281 C 90.058594 55.976562 90.636719 55.972656 91.207031 55.917969 C 91.03125 56.3125 90.890625 56.722656 90.707031 57.113281 L 90.644531 57.125 C 90.113281 57.082031 89.582031 57.113281 89.050781 57.085938 C 89.191406 56.679688 89.339844 56.273438 89.480469 55.863281 Z M 89.480469 55.863281 "/>
<path style=" stroke:none;fill-rule:nonzero;fill:rgb(14.901961%,63.529412%,74.901961%);fill-opacity:1;" d="M 25.082031 58.707031 C 25.070312 58.023438 25.066406 57.339844 25.144531 56.660156 C 25.15625 56.722656 25.171875 56.84375 25.183594 56.902344 C 26.605469 56.921875 28.027344 56.898438 29.449219 56.917969 C 29.449219 57.488281 29.480469 58.058594 29.554688 58.625 C 28.234375 58.679688 26.914062 58.632812 25.597656 58.644531 C 25.425781 58.652344 25.253906 58.679688 25.082031 58.707031 Z M 25.082031 58.707031 "/>
<path style=" stroke:none;fill-rule:nonzero;fill:rgb(14.901961%,63.529412%,74.901961%);fill-opacity:1;" d="M 43.511719 56.957031 C 43.652344 57.03125 43.796875 57.109375 43.960938 57.097656 C 44.574219 57.101562 45.183594 57.078125 45.796875 57.105469 C 45.898438 57.5625 45.964844 58.023438 46.03125 58.488281 C 45.863281 58.800781 45.492188 58.675781 45.207031 58.695312 C 44.617188 58.671875 44.023438 58.75 43.4375 58.640625 C 43.484375 58.082031 43.535156 57.519531 43.511719 56.957031 Z M 43.511719 56.957031 "/>
<path style=" stroke:none;fill-rule:nonzero;fill:rgb(14.901961%,63.921569%,74.901961%);fill-opacity:1;" d="M 77.027344 55.917969 C 78.601562 55.894531 80.175781 55.933594 81.746094 55.894531 L 81.761719 55.890625 C 81.835938 56.207031 81.921875 56.519531 82.007812 56.832031 C 80.476562 56.835938 78.941406 56.824219 77.410156 56.835938 C 77.285156 56.53125 77.15625 56.222656 77.027344 55.917969 Z M 77.027344 55.917969 "/>
<path style=" stroke:none;fill-rule:nonzero;fill:rgb(14.509804%,60.392157%,73.333333%);fill-opacity:1;" d="M 63.335938 56.140625 L 63.34375 56.140625 C 63.875 56.238281 64.410156 56.195312 64.945312 56.199219 C 66.214844 56.183594 67.484375 56.242188 68.75 56.171875 L 68.8125 56.1875 C 69.109375 56.855469 69.382812 57.539062 69.648438 58.222656 C 68.160156 58.367188 66.65625 58.207031 65.164062 58.308594 C 64.890625 57.660156 64.632812 57.007812 64.367188 56.359375 C 64.074219 57.132812 63.773438 57.90625 63.480469 58.683594 C 63.125 58.65625 62.773438 58.644531 62.417969 58.625 L 62.398438 58.570312 C 62.679688 57.75 63.03125 56.953125 63.335938 56.140625 Z M 63.335938 56.140625 "/>
<path style=" stroke:none;fill-rule:nonzero;fill:rgb(14.509804%,60.392157%,73.333333%);fill-opacity:1;" d="M 160.53125 56.558594 C 161.035156 56.5625 161.542969 56.558594 162.050781 56.5625 C 162.035156 56.996094 162.019531 57.429688 162.011719 57.863281 C 161.535156 57.953125 161.046875 57.957031 160.570312 57.863281 C 160.566406 57.425781 160.550781 56.992188 160.53125 56.558594 Z M 160.53125 56.558594 "/>
<path style=" stroke:none;fill-rule:nonzero;fill:rgb(14.509804%,60.392157%,73.333333%);fill-opacity:1;" d="M 77.410156 56.835938 C 78.941406 56.824219 80.476562 56.835938 82.007812 56.832031 C 82.082031 57.144531 82.21875 57.449219 82.265625 57.765625 L 82.234375 57.824219 C 81.984375 57.847656 81.734375 57.820312 81.480469 57.847656 C 80.847656 57.914062 80.214844 57.796875 79.582031 57.816406 C 79.023438 57.902344 78.457031 57.835938 77.894531 57.871094 L 77.828125 57.871094 C 77.695312 57.523438 77.550781 57.179688 77.410156 56.835938 Z M 77.410156 56.835938 "/>
<path style=" stroke:none;fill-rule:nonzero;fill:rgb(14.117647%,58.823529%,72.156863%);fill-opacity:1;" d="M 119.976562 56.921875 C 121.464844 56.921875 122.957031 56.914062 124.445312 56.917969 C 124.425781 57.496094 124.402344 58.078125 124.386719 58.65625 C 122.917969 58.671875 121.453125 58.652344 119.988281 58.664062 C 119.992188 58.082031 119.984375 57.503906 119.976562 56.921875 Z M 119.976562 56.921875 "/>
<path style=" stroke:none;fill-rule:nonzero;fill:rgb(14.117647%,58.823529%,72.156863%);fill-opacity:1;" d="M 88.597656 58.371094 C 88.746094 57.941406 88.894531 57.515625 89.050781 57.085938 C 89.582031 57.113281 90.113281 57.082031 90.644531 57.125 L 90.664062 57.183594 C 90.554688 57.597656 90.355469 57.980469 90.214844 58.386719 C 89.675781 58.371094 89.136719 58.375 88.597656 58.371094 Z M 88.597656 58.371094 "/>
<path style=" stroke:none;fill-rule:nonzero;fill:rgb(14.117647%,58.823529%,72.156863%);fill-opacity:1;" d="M 46.03125 58.488281 C 46.136719 59.570312 46.128906 60.664062 45.972656 61.742188 C 44.878906 61.730469 43.789062 61.757812 42.695312 61.71875 L 42.675781 61.664062 C 43.015625 60.679688 43.3125 59.675781 43.425781 58.640625 L 43.4375 58.640625 C 44.023438 58.75 44.617188 58.671875 45.207031 58.695312 C 45.492188 58.675781 45.863281 58.800781 46.03125 58.488281 Z M 46.03125 58.488281 "/>
<path style=" stroke:none;fill-rule:nonzero;fill:rgb(14.117647%,57.647059%,71.764706%);fill-opacity:1;" d="M 133.390625 57.113281 C 135.121094 57.085938 136.851562 57.097656 138.582031 57.101562 C 138.839844 57.609375 139.050781 58.140625 139.222656 58.679688 C 138.683594 58.800781 138.132812 58.746094 137.585938 58.753906 C 136.375 58.75 135.164062 58.757812 133.949219 58.75 C 133.804688 58.191406 133.617188 57.644531 133.390625 57.113281 Z M 133.390625 57.113281 "/>
<path style=" stroke:none;fill-rule:nonzero;fill:rgb(14.117647%,57.647059%,71.764706%);fill-opacity:1;" d="M 144.78125 57.464844 C 146.257812 57.472656 147.734375 57.460938 149.210938 57.472656 C 149.195312 57.90625 149.175781 58.34375 149.167969 58.78125 C 148.632812 58.882812 148.082031 58.832031 147.542969 58.839844 C 146.617188 58.839844 145.695312 58.839844 144.769531 58.84375 C 144.773438 58.382812 144.777344 57.925781 144.78125 57.464844 Z M 144.78125 57.464844 "/>
<path style=" stroke:none;fill-rule:nonzero;fill:rgb(14.117647%,56.078431%,70.980392%);fill-opacity:1;" d="M 108.59375 57.777344 C 108.703125 57.390625 109.402344 57.390625 109.429688 57.820312 C 109.382812 58.300781 109.296875 58.773438 109.289062 59.253906 C 108.839844 59.214844 108.382812 59.277344 107.949219 59.136719 C 108.1875 58.695312 108.421875 58.25 108.59375 57.777344 Z M 108.59375 57.777344 "/>
<path style=" stroke:none;fill-rule:nonzero;fill:rgb(14.117647%,55.294118%,70.588235%);fill-opacity:1;" d="M 77.894531 57.871094 C 78.457031 57.835938 79.023438 57.902344 79.582031 57.816406 C 80.214844 57.796875 80.847656 57.914062 81.480469 57.847656 C 81.734375 57.820312 81.984375 57.847656 82.234375 57.824219 L 82.296875 57.84375 C 82.5 58.390625 82.65625 58.949219 82.84375 59.503906 C 81.714844 59.660156 80.578125 59.507812 79.449219 59.574219 C 79.136719 59.570312 78.820312 59.554688 78.507812 59.554688 C 78.28125 58.992188 78.054688 58.433594 77.832031 57.871094 Z M 77.894531 57.871094 "/>
<path style=" stroke:none;fill-rule:nonzero;fill:rgb(14.117647%,55.294118%,70.588235%);fill-opacity:1;" d="M 29.835938 60.019531 C 30.167969 61.3125 30.773438 62.519531 31.507812 63.625 C 29.675781 63.671875 27.84375 63.640625 26.011719 63.648438 C 25.578125 62.515625 25.347656 61.316406 25.1875 60.113281 C 25.347656 60.1875 25.503906 60.28125 25.683594 60.269531 C 26.980469 60.3125 28.277344 60.300781 29.574219 60.265625 C 29.667969 60.195312 29.75 60.101562 29.835938 60.019531 Z M 29.835938 60.019531 "/>
<path style=" stroke:none;fill-rule:nonzero;fill:rgb(14.117647%,55.686275%,70.980392%);fill-opacity:1;" d="M 160.570312 57.863281 C 161.046875 57.957031 161.535156 57.953125 162.011719 57.863281 C 161.992188 58.710938 161.992188 59.5625 161.972656 60.410156 C 161.90625 60.042969 161.890625 59.671875 161.902344 59.296875 C 161.457031 59.273438 161.011719 59.269531 160.570312 59.34375 C 160.578125 58.847656 160.578125 58.355469 160.570312 57.863281 Z M 160.570312 57.863281 "/>
<path style=" stroke:none;fill-rule:nonzero;fill:rgb(13.72549%,54.509804%,70.196078%);fill-opacity:1;" d="M 69.648438 58.222656 L 69.660156 58.21875 C 69.847656 58.695312 70.042969 59.167969 70.234375 59.640625 C 68.734375 59.648438 67.230469 59.621094 65.730469 59.664062 C 65.539062 59.214844 65.347656 58.761719 65.164062 58.308594 C 66.65625 58.207031 68.160156 58.367188 69.648438 58.222656 Z M 69.648438 58.222656 "/>
<path style=" stroke:none;fill-rule:nonzero;fill:rgb(13.72549%,54.509804%,70.196078%);fill-opacity:1;" d="M 88.230469 59.417969 C 88.34375 59.066406 88.46875 58.71875 88.597656 58.371094 C 89.136719 58.375 89.675781 58.371094 90.214844 58.386719 C 90.078125 58.753906 89.929688 59.117188 89.792969 59.488281 L 89.785156 59.488281 C 89.265625 59.457031 88.742188 59.5 88.230469 59.417969 Z M 88.230469 59.417969 "/>
<path style=" stroke:none;fill-rule:nonzero;fill:rgb(14.117647%,54.901961%,70.588235%);fill-opacity:1;" d="M 99.105469 58.277344 C 100.535156 58.269531 101.96875 58.273438 103.402344 58.277344 C 103.398438 58.339844 103.382812 58.460938 103.378906 58.523438 C 103.335938 58.800781 103.300781 59.085938 103.28125 59.371094 C 102.265625 59.296875 101.25 59.390625 100.234375 59.355469 C 99.855469 59.355469 99.480469 59.371094 99.101562 59.382812 C 99.105469 59.015625 99.101562 58.644531 99.105469 58.277344 Z M 99.105469 58.277344 "/>
<path style=" stroke:none;fill-rule:nonzero;fill:rgb(13.72549%,50.588235%,68.235294%);fill-opacity:1;" d="M 103.28125 59.371094 C 103.300781 59.085938 103.335938 58.800781 103.378906 58.523438 C 103.40625 59.289062 103.402344 60.058594 103.421875 60.828125 C 104.464844 60.847656 105.550781 60.925781 106.542969 60.535156 C 107.179688 60.289062 107.625 59.722656 107.941406 59.136719 L 107.949219 59.136719 C 108.382812 59.277344 108.839844 59.214844 109.289062 59.253906 C 109.214844 60.839844 109.207031 62.429688 109.210938 64.015625 C 109.203125 64.476562 109.316406 64.925781 109.363281 65.382812 C 109.398438 65.753906 108.847656 65.9375 108.628906 65.660156 C 108.402344 65.371094 108.371094 64.988281 108.269531 64.648438 C 108.011719 63.707031 107.339844 62.882812 106.445312 62.492188 C 105.503906 62.078125 104.457031 62 103.441406 61.976562 C 103.371094 64.027344 103.328125 66.082031 103.394531 68.132812 C 103.140625 68.351562 102.792969 68.28125 102.488281 68.292969 C 101.464844 68.269531 100.441406 68.304688 99.417969 68.28125 C 99.070312 68.289062 99.15625 67.820312 99.027344 67.597656 C 98.980469 66.742188 99.039062 65.878906 99.035156 65.019531 C 99.058594 63.140625 99.078125 61.261719 99.101562 59.382812 C 99.480469 59.371094 99.855469 59.355469 100.234375 59.355469 C 101.25 59.390625 102.265625 59.296875 103.28125 59.371094 Z M 103.28125 59.371094 "/>
<path style=" stroke:none;fill-rule:nonzero;fill:rgb(14.509804%,60.784314%,73.333333%);fill-opacity:1;" d="M 25.082031 58.707031 C 25.253906 58.679688 25.425781 58.652344 25.597656 58.644531 C 26.914062 58.632812 28.234375 58.679688 29.554688 58.625 C 29.625 59.09375 29.710938 59.5625 29.835938 60.019531 C 29.75 60.101562 29.667969 60.195312 29.574219 60.265625 C 28.277344 60.300781 26.980469 60.3125 25.683594 60.269531 C 25.503906 60.28125 25.347656 60.1875 25.1875 60.113281 C 25.144531 59.644531 25.101562 59.175781 25.082031 58.707031 Z M 25.082031 58.707031 "/>
<path style=" stroke:none;fill-rule:nonzero;fill:rgb(13.333333%,50.196078%,68.235294%);fill-opacity:1;" d="M 62.359375 58.644531 L 62.417969 58.625 C 62.773438 58.644531 63.125 58.65625 63.480469 58.683594 C 62.894531 60.214844 62.3125 61.746094 61.726562 63.277344 C 63.539062 63.253906 65.347656 63.226562 67.160156 63.199219 C 66.722656 62.007812 66.226562 60.835938 65.730469 59.664062 C 67.230469 59.621094 68.734375 59.648438 70.234375 59.640625 C 71.191406 61.984375 72.09375 64.355469 73.046875 66.699219 C 73.515625 67.816406 73.964844 68.941406 74.558594 69.996094 C 74.878906 70.582031 75.445312 71.007812 76.082031 71.199219 C 76.386719 71.308594 76.722656 71.316406 77.03125 71.433594 C 77.300781 71.5625 77.273438 72.003906 77.03125 72.148438 C 76.828125 72.265625 76.578125 72.238281 76.355469 72.234375 C 75.023438 72.15625 73.699219 71.992188 72.367188 71.988281 C 70.886719 71.972656 69.410156 72.136719 67.933594 72.207031 C 67.652344 72.207031 67.316406 72.238281 67.105469 72.015625 C 66.933594 71.820312 67.03125 71.472656 67.296875 71.429688 C 67.933594 71.320312 68.671875 71.269531 69.128906 70.746094 C 69.519531 70.300781 69.449219 69.652344 69.316406 69.117188 C 68.914062 67.546875 68.332031 66.023438 67.652344 64.550781 C 65.515625 64.519531 63.382812 64.539062 61.246094 64.550781 C 60.761719 65.894531 60.273438 67.242188 59.984375 68.644531 C 59.863281 69.226562 59.820312 69.90625 60.226562 70.394531 C 60.695312 70.933594 61.40625 71.191406 62.101562 71.273438 C 62.347656 71.289062 62.632812 71.460938 62.605469 71.746094 C 62.609375 72.074219 62.226562 72.160156 61.964844 72.144531 C 60.730469 72.117188 59.496094 71.960938 58.257812 71.992188 C 57.5625 72.003906 56.871094 72.0625 56.179688 72.15625 C 55.929688 72.175781 55.640625 72.21875 55.429688 72.050781 C 55.1875 71.824219 55.285156 71.347656 55.625 71.277344 C 56.304688 71.0625 57.027344 70.828125 57.507812 70.265625 C 58.238281 69.40625 58.691406 68.355469 59.109375 67.316406 C 59.636719 65.988281 60.082031 64.625 60.585938 63.285156 C 61.164062 61.730469 61.746094 60.179688 62.359375 58.644531 Z M 62.359375 58.644531 "/>
<path style=" stroke:none;fill-rule:nonzero;fill:rgb(13.333333%,50.196078%,68.235294%);fill-opacity:1;" d="M 119.988281 58.664062 C 121.453125 58.652344 122.917969 58.671875 124.386719 58.65625 C 124.289062 61.015625 124.226562 63.375 124.230469 65.738281 C 124.238281 66.953125 124.195312 68.179688 124.394531 69.386719 C 124.5 70.101562 124.980469 70.765625 125.675781 71 C 126.511719 71.277344 127.414062 71.253906 128.285156 71.171875 C 129.742188 71.019531 131.152344 70.371094 132.160156 69.292969 C 133.433594 67.972656 134.050781 66.15625 134.265625 64.359375 C 134.476562 62.492188 134.414062 60.578125 133.949219 58.75 C 135.164062 58.757812 136.375 58.75 137.585938 58.753906 C 138.132812 58.746094 138.683594 58.800781 139.222656 58.679688 C 140.1875 61.855469 139.773438 65.519531 137.792969 68.226562 C 136.875 69.488281 135.625 70.480469 134.257812 71.210938 C 132.621094 72.085938 130.734375 72.273438 128.910156 72.332031 C 126.375 72.347656 123.84375 72.21875 121.308594 72.25 C 120.164062 72.253906 119.019531 72.261719 117.875 72.234375 C 117.417969 72.214844 116.957031 72.257812 116.507812 72.160156 C 116.171875 72.0625 116.191406 71.488281 116.519531 71.386719 C 116.832031 71.277344 117.175781 71.339844 117.5 71.296875 C 118.097656 71.242188 118.773438 71.085938 119.132812 70.558594 C 119.597656 69.871094 119.589844 69.003906 119.671875 68.207031 C 119.878906 65.03125 119.96875 61.847656 119.988281 58.664062 Z M 119.988281 58.664062 "/>
<path style=" stroke:none;fill-rule:nonzero;fill:rgb(13.333333%,50.196078%,68.235294%);fill-opacity:1;" d="M 147.542969 58.839844 C 148.082031 58.832031 148.632812 58.882812 149.167969 58.78125 C 149.121094 60.738281 149.113281 62.703125 149.234375 64.660156 C 149.296875 65.460938 149.355469 66.273438 149.574219 67.050781 C 149.832031 67.972656 150.4375 68.777344 151.222656 69.3125 C 152.230469 70.019531 153.480469 70.261719 154.6875 70.296875 C 155.742188 70.324219 156.832031 70.238281 157.796875 69.777344 C 158.503906 69.441406 159.074219 68.847656 159.449219 68.160156 C 159.964844 67.222656 160.183594 66.15625 160.304688 65.101562 C 160.519531 63.191406 160.550781 61.265625 160.570312 59.34375 C 161.011719 59.269531 161.457031 59.273438 161.902344 59.296875 C 161.890625 59.671875 161.90625 60.042969 161.972656 60.410156 C 161.960938 62.796875 162.082031 65.230469 161.488281 67.5625 C 161.167969 68.863281 160.347656 70.023438 159.246094 70.769531 C 157.578125 71.929688 155.503906 72.28125 153.515625 72.304688 C 151.75 72.304688 149.945312 72.183594 148.269531 71.574219 C 146.902344 71.085938 145.710938 70.035156 145.171875 68.664062 C 144.792969 67.679688 144.742188 66.605469 144.722656 65.558594 C 144.734375 63.320312 144.753906 61.082031 144.769531 58.84375 C 145.695312 58.839844 146.617188 58.839844 147.542969 58.839844 Z M 147.542969 58.839844 "/>
<path style=" stroke:none;fill-rule:nonzero;fill:rgb(13.333333%,50.196078%,68.235294%);fill-opacity:1;" d="M 88.21875 59.414062 L 88.230469 59.417969 C 88.742188 59.5 89.265625 59.457031 89.785156 59.488281 C 89.125 61.25 88.433594 62.996094 87.765625 64.75 C 86.769531 67.316406 85.839844 69.914062 84.722656 72.433594 C 84.300781 72.429688 83.882812 72.433594 83.460938 72.429688 C 81.8125 68.136719 80.207031 63.828125 78.507812 59.554688 C 78.820312 59.554688 79.136719 59.570312 79.449219 59.574219 C 80.578125 59.507812 81.714844 59.660156 82.84375 59.503906 L 82.851562 59.5 C 83.671875 61.914062 84.546875 64.304688 85.503906 66.667969 C 86.457031 64.265625 87.363281 61.851562 88.21875 59.414062 Z M 88.21875 59.414062 "/>
<path style=" stroke:none;fill-rule:nonzero;fill:rgb(13.72549%,54.117647%,70.196078%);fill-opacity:1;" d="M 42.632812 61.734375 L 42.695312 61.71875 C 43.789062 61.757812 44.878906 61.730469 45.972656 61.742188 C 45.90625 62.199219 45.8125 62.65625 45.703125 63.105469 C 44.667969 63.125 43.636719 63.109375 42.601562 63.121094 C 42.402344 63.136719 42.214844 63.074219 42.054688 62.953125 C 42.277344 62.5625 42.445312 62.140625 42.632812 61.734375 Z M 42.632812 61.734375 "/>
<path style=" stroke:none;fill-rule:nonzero;fill:rgb(16.078431%,14.901961%,15.294118%);fill-opacity:1;" d="M 113.898438 74.472656 C 114.117188 74.472656 114.335938 74.472656 114.554688 74.472656 C 114.398438 74.820312 114.242188 75.171875 114.082031 75.519531 C 113.910156 75.519531 113.734375 75.515625 113.5625 75.519531 C 113.667969 75.167969 113.785156 74.820312 113.898438 74.472656 Z M 113.898438 74.472656 "/>
<path style=" stroke:none;fill-rule:nonzero;fill:rgb(16.078431%,14.901961%,15.294118%);fill-opacity:1;" d="M 120.972656 74.542969 C 121.195312 74.542969 121.417969 74.542969 121.644531 74.542969 C 121.660156 75.992188 121.632812 77.441406 121.660156 78.890625 C 121.457031 78.890625 121.257812 78.890625 121.058594 78.894531 C 121.050781 78.820312 121.039062 78.675781 121.035156 78.605469 C 120.816406 78.761719 120.589844 78.910156 120.34375 79.019531 L 120.050781 79.019531 C 119.769531 78.894531 119.464844 78.765625 119.289062 78.5 C 119 78.0625 118.980469 77.503906 119.074219 77.003906 C 119.171875 76.511719 119.519531 76.03125 120.03125 75.9375 C 120.359375 75.847656 120.679688 75.996094 120.972656 76.132812 C 120.964844 75.605469 120.964844 75.074219 120.972656 74.542969 M 119.960938 76.667969 C 119.714844 76.960938 119.703125 77.371094 119.746094 77.734375 C 119.777344 78.007812 119.921875 78.328125 120.222656 78.386719 C 120.503906 78.457031 120.757812 78.289062 120.96875 78.125 C 120.957031 77.660156 120.984375 77.195312 120.960938 76.734375 C 120.726562 76.453125 120.21875 76.375 119.960938 76.667969 Z M 119.960938 76.667969 "/>
<path style=" stroke:none;fill-rule:nonzero;fill:rgb(16.078431%,14.901961%,15.294118%);fill-opacity:1;" d="M 129.53125 74.546875 C 129.765625 74.542969 130.003906 74.542969 130.242188 74.542969 C 130.242188 74.800781 130.242188 75.058594 130.242188 75.320312 C 130.003906 75.316406 129.765625 75.316406 129.53125 75.316406 C 129.527344 75.058594 129.527344 74.800781 129.53125 74.546875 Z M 129.53125 74.546875 "/>
<path style=" stroke:none;fill-rule:nonzero;fill:rgb(16.078431%,14.901961%,15.294118%);fill-opacity:1;" d="M 132.789062 74.542969 C 133.015625 74.542969 133.238281 74.542969 133.464844 74.542969 C 133.476562 75.992188 133.449219 77.441406 133.484375 78.890625 C 133.28125 78.890625 133.082031 78.890625 132.878906 78.894531 C 132.867188 78.792969 132.859375 78.695312 132.851562 78.597656 C 132.640625 78.761719 132.417969 78.90625 132.175781 79.019531 L 131.875 79.019531 C 131.488281 78.875 131.097656 78.640625 130.964844 78.222656 C 130.730469 77.519531 130.804688 76.589844 131.4375 76.117188 C 131.839844 75.808594 132.390625 75.886719 132.796875 76.144531 C 132.785156 75.613281 132.789062 75.078125 132.789062 74.542969 M 131.796875 76.648438 C 131.53125 76.945312 131.519531 77.378906 131.570312 77.753906 C 131.605469 78.03125 131.757812 78.34375 132.0625 78.390625 C 132.34375 78.453125 132.585938 78.28125 132.792969 78.117188 C 132.777344 77.652344 132.808594 77.191406 132.78125 76.730469 C 132.539062 76.460938 132.0625 76.375 131.796875 76.648438 Z M 131.796875 76.648438 "/>
<path style=" stroke:none;fill-rule:nonzero;fill:rgb(16.078431%,14.901961%,15.294118%);fill-opacity:1;" d="M 143.289062 74.546875 C 143.511719 74.542969 143.738281 74.542969 143.960938 74.539062 C 143.984375 75.988281 143.945312 77.441406 143.984375 78.886719 C 143.785156 78.890625 143.585938 78.894531 143.390625 78.898438 C 143.375 78.796875 143.359375 78.695312 143.347656 78.597656 C 143.140625 78.761719 142.917969 78.910156 142.675781 79.019531 L 142.375 79.019531 C 141.988281 78.871094 141.597656 78.636719 141.464844 78.222656 C 141.222656 77.503906 141.316406 76.527344 141.996094 76.078125 C 142.394531 75.808594 142.90625 75.90625 143.292969 76.140625 C 143.285156 75.609375 143.289062 75.078125 143.289062 74.546875 M 142.253906 76.703125 C 142.03125 77.003906 142.023438 77.402344 142.070312 77.757812 C 142.109375 78.03125 142.261719 78.34375 142.558594 78.390625 C 142.839844 78.457031 143.085938 78.285156 143.292969 78.117188 C 143.277344 77.660156 143.308594 77.199219 143.277344 76.738281 C 143.050781 76.4375 142.496094 76.371094 142.253906 76.703125 Z M 142.253906 76.703125 "/>
<path style=" stroke:none;fill-rule:nonzero;fill:rgb(16.078431%,14.901961%,15.294118%);fill-opacity:1;" d="M 155.78125 74.546875 C 156.019531 74.542969 156.257812 74.542969 156.496094 74.546875 C 156.492188 74.800781 156.492188 75.058594 156.496094 75.316406 C 156.257812 75.316406 156.015625 75.316406 155.78125 75.316406 C 155.78125 75.058594 155.78125 74.800781 155.78125 74.546875 Z M 155.78125 74.546875 "/>
<path style=" stroke:none;fill-rule:nonzero;fill:rgb(16.078431%,14.901961%,15.294118%);fill-opacity:1;" d="M 97.585938 74.882812 C 97.796875 74.875 98.011719 74.871094 98.226562 74.871094 C 98.746094 76.207031 99.246094 77.550781 99.753906 78.890625 C 99.507812 78.890625 99.257812 78.890625 99.011719 78.890625 C 98.890625 78.550781 98.761719 78.210938 98.640625 77.871094 C 98.160156 77.867188 97.675781 77.867188 97.195312 77.871094 C 97.074219 78.207031 96.949219 78.546875 96.828125 78.886719 C 96.578125 78.890625 96.328125 78.890625 96.078125 78.894531 C 96.570312 77.554688 97.09375 76.226562 97.585938 74.882812 M 97.429688 77.257812 C 97.753906 77.253906 98.082031 77.253906 98.410156 77.257812 C 98.242188 76.796875 98.085938 76.332031 97.929688 75.871094 C 97.734375 76.324219 97.597656 76.796875 97.429688 77.257812 Z M 97.429688 77.257812 "/>
<path style=" stroke:none;fill-rule:nonzero;fill:rgb(16.078431%,14.901961%,15.294118%);fill-opacity:1;" d="M 153.730469 75.171875 C 153.957031 75.171875 154.183594 75.171875 154.410156 75.171875 C 154.40625 75.441406 154.40625 75.710938 154.410156 75.984375 C 154.671875 75.984375 154.9375 75.984375 155.207031 75.984375 C 155.207031 76.175781 155.210938 76.371094 155.214844 76.5625 C 154.945312 76.566406 154.675781 76.570312 154.410156 76.570312 C 154.425781 77.109375 154.367188 77.652344 154.441406 78.183594 C 154.589844 78.488281 155 78.320312 155.261719 78.324219 C 155.242188 78.511719 155.28125 78.710938 155.210938 78.886719 C 155.089844 78.941406 154.964844 78.980469 154.839844 79.019531 L 154.492188 79.019531 C 154.179688 78.894531 153.789062 78.730469 153.753906 78.34375 C 153.695312 77.753906 153.746094 77.160156 153.730469 76.570312 C 153.554688 76.566406 153.382812 76.566406 153.214844 76.570312 C 153.210938 76.375 153.210938 76.179688 153.210938 75.988281 C 153.382812 75.984375 153.558594 75.984375 153.730469 75.980469 C 153.730469 75.710938 153.730469 75.441406 153.730469 75.171875 Z M 153.730469 75.171875 "/>
<path style=" stroke:none;fill-rule:nonzero;fill:rgb(16.078431%,14.901961%,15.294118%);fill-opacity:1;" d="M 100.59375 76.019531 C 101.042969 75.820312 101.546875 75.9375 102.003906 76.058594 C 102.003906 76.25 102.003906 76.441406 102.007812 76.636719 C 101.652344 76.558594 101.277344 76.421875 100.917969 76.535156 C 100.71875 76.59375 100.667969 76.914062 100.871094 77.003906 C 101.183594 77.167969 101.5625 77.171875 101.851562 77.390625 C 102.175781 77.652344 102.179688 78.164062 101.980469 78.503906 C 101.792969 78.816406 101.414062 78.90625 101.09375 79.019531 L 100.71875 79.019531 C 100.503906 78.957031 100.292969 78.886719 100.082031 78.816406 C 100.082031 78.628906 100.085938 78.445312 100.089844 78.261719 C 100.46875 78.351562 100.882812 78.472656 101.257812 78.3125 C 101.429688 78.246094 101.515625 78.007812 101.371094 77.875 C 101.03125 77.632812 100.542969 77.675781 100.25 77.351562 C 99.921875 76.9375 100.101562 76.222656 100.59375 76.019531 Z M 100.59375 76.019531 "/>
<path style=" stroke:none;fill-rule:nonzero;fill:rgb(16.078431%,14.901961%,15.294118%);fill-opacity:1;" d="M 102.800781 76.511719 C 103.160156 75.871094 104.125 75.703125 104.671875 76.199219 C 105.058594 76.570312 105.082031 77.144531 105.074219 77.652344 C 104.457031 77.652344 103.84375 77.648438 103.226562 77.652344 C 103.296875 77.878906 103.359375 78.152344 103.59375 78.269531 C 104.027344 78.503906 104.535156 78.351562 104.984375 78.246094 C 104.976562 78.433594 104.96875 78.625 104.960938 78.816406 C 104.71875 78.878906 104.480469 78.945312 104.242188 79.019531 L 103.820312 79.019531 C 103.425781 78.890625 102.984375 78.757812 102.769531 78.367188 C 102.460938 77.808594 102.488281 77.066406 102.800781 76.511719 M 103.464844 76.640625 C 103.347656 76.761719 103.320312 76.9375 103.273438 77.09375 C 103.644531 77.09375 104.019531 77.097656 104.390625 77.089844 C 104.339844 76.914062 104.324219 76.710938 104.179688 76.585938 C 103.980469 76.40625 103.636719 76.4375 103.464844 76.640625 Z M 103.464844 76.640625 "/>
<path style=" stroke:none;fill-rule:nonzero;fill:rgb(16.078431%,14.901961%,15.294118%);fill-opacity:1;" d="M 106.046875 76.039062 C 106.503906 75.8125 107.035156 75.925781 107.496094 76.066406 C 107.496094 76.253906 107.496094 76.4375 107.5 76.625 C 107.148438 76.5625 106.777344 76.429688 106.421875 76.527344 C 106.222656 76.574219 106.160156 76.867188 106.328125 76.984375 C 106.648438 77.175781 107.058594 77.164062 107.355469 77.402344 C 107.660156 77.660156 107.664062 78.144531 107.484375 78.480469 C 107.304688 78.804688 106.921875 78.898438 106.601562 79.019531 L 106.175781 79.019531 C 105.976562 78.953125 105.777344 78.886719 105.578125 78.824219 C 105.574219 78.632812 105.570312 78.445312 105.570312 78.257812 C 105.953125 78.351562 106.382812 78.480469 106.765625 78.304688 C 106.945312 78.234375 107 77.949219 106.824219 77.84375 C 106.5 77.660156 106.097656 77.65625 105.804688 77.417969 C 105.398438 77.039062 105.554688 76.269531 106.046875 76.039062 Z M 106.046875 76.039062 "/>
<path style=" stroke:none;fill-rule:nonzero;fill:rgb(16.078431%,14.901961%,15.294118%);fill-opacity:1;" d="M 108.265625 76.546875 C 108.6875 75.796875 109.847656 75.699219 110.433594 76.304688 C 110.914062 76.828125 110.945312 77.667969 110.640625 78.289062 C 110.441406 78.695312 110.003906 78.886719 109.597656 79.019531 L 109.261719 79.019531 C 108.917969 78.886719 108.535156 78.753906 108.324219 78.429688 C 107.960938 77.878906 107.953125 77.121094 108.265625 76.546875 M 109.226562 76.53125 C 108.914062 76.632812 108.777344 76.976562 108.757812 77.28125 C 108.730469 77.617188 108.769531 78.011719 109.042969 78.246094 C 109.320312 78.484375 109.800781 78.40625 109.980469 78.082031 C 110.179688 77.726562 110.171875 77.273438 110.035156 76.898438 C 109.914062 76.582031 109.539062 76.414062 109.226562 76.53125 Z M 109.226562 76.53125 "/>
<path style=" stroke:none;fill-rule:nonzero;fill:rgb(16.078431%,14.901961%,15.294118%);fill-opacity:1;" d="M 112.050781 76.351562 C 112.304688 76.035156 112.679688 75.867188 113.085938 75.90625 C 113.085938 76.117188 113.082031 76.328125 113.082031 76.539062 C 112.738281 76.566406 112.296875 76.605469 112.125 76.957031 C 112.097656 77.597656 112.117188 78.238281 112.121094 78.878906 C 111.898438 78.886719 111.675781 78.894531 111.453125 78.898438 C 111.414062 77.929688 111.445312 76.957031 111.4375 75.984375 C 111.621094 75.984375 111.808594 75.984375 112 75.988281 C 112.015625 76.109375 112.03125 76.230469 112.050781 76.351562 Z M 112.050781 76.351562 "/>
<path style=" stroke:none;fill-rule:nonzero;fill:rgb(16.078431%,14.901961%,15.294118%);fill-opacity:1;" d="M 115.046875 76.101562 C 115.574219 75.914062 116.199219 75.800781 116.71875 76.082031 C 117.027344 76.238281 117.199219 76.582031 117.195312 76.921875 C 117.207031 77.578125 117.1875 78.234375 117.214844 78.890625 C 117.011719 78.890625 116.8125 78.890625 116.613281 78.894531 C 116.601562 78.792969 116.589844 78.691406 116.578125 78.59375 C 116.363281 78.753906 116.136719 78.902344 115.894531 79.019531 L 115.59375 79.019531 C 115.402344 78.921875 115.191406 78.835938 115.042969 78.675781 C 114.667969 78.257812 114.757812 77.5 115.25 77.207031 C 115.640625 76.964844 116.117188 77.046875 116.546875 77.101562 C 116.496094 76.898438 116.476562 76.636719 116.253906 76.546875 C 115.859375 76.386719 115.429688 76.542969 115.046875 76.65625 C 115.042969 76.46875 115.042969 76.285156 115.046875 76.101562 M 115.703125 77.664062 C 115.429688 77.785156 115.4375 78.246094 115.714844 78.359375 C 115.992188 78.46875 116.316406 78.332031 116.503906 78.113281 C 116.523438 77.957031 116.519531 77.796875 116.523438 77.644531 C 116.253906 77.613281 115.957031 77.535156 115.703125 77.664062 Z M 115.703125 77.664062 "/>
<path style=" stroke:none;fill-rule:nonzero;fill:rgb(16.078431%,14.901961%,15.294118%);fill-opacity:1;" d="M 122.566406 76.46875 C 122.949219 75.847656 123.921875 75.710938 124.441406 76.230469 C 124.804688 76.601562 124.816406 77.15625 124.820312 77.644531 C 124.203125 77.65625 123.582031 77.644531 122.964844 77.652344 C 123.039062 77.878906 123.097656 78.148438 123.328125 78.265625 C 123.757812 78.503906 124.269531 78.359375 124.714844 78.242188 C 124.710938 78.429688 124.710938 78.617188 124.714844 78.804688 C 124.464844 78.875 124.21875 78.945312 123.972656 79.019531 L 123.550781 79.019531 C 123.160156 78.886719 122.714844 78.75 122.503906 78.359375 C 122.191406 77.785156 122.222656 77.027344 122.566406 76.46875 M 123.003906 77.089844 C 123.375 77.09375 123.75 77.09375 124.121094 77.09375 C 124.105469 76.792969 123.921875 76.429688 123.570312 76.46875 C 123.230469 76.46875 123.066406 76.804688 123.003906 77.089844 Z M 123.003906 77.089844 "/>
<path style=" stroke:none;fill-rule:nonzero;fill:rgb(16.078431%,14.901961%,15.294118%);fill-opacity:1;" d="M 134.359375 76.105469 C 134.859375 75.921875 135.4375 75.8125 135.941406 76.035156 C 136.257812 76.167969 136.492188 76.480469 136.503906 76.828125 C 136.539062 77.511719 136.492188 78.195312 136.535156 78.878906 C 136.328125 78.886719 136.125 78.890625 135.917969 78.894531 C 135.914062 78.824219 135.898438 78.683594 135.894531 78.613281 C 135.667969 78.761719 135.433594 78.90625 135.183594 79.019531 L 134.921875 79.019531 C 134.730469 78.929688 134.53125 78.847656 134.378906 78.695312 C 133.96875 78.273438 134.070312 77.464844 134.601562 77.1875 C 134.992188 76.964844 135.453125 77.054688 135.875 77.09375 C 135.808594 76.886719 135.777344 76.617188 135.542969 76.535156 C 135.152344 76.394531 134.738281 76.546875 134.355469 76.652344 C 134.355469 76.46875 134.355469 76.285156 134.359375 76.105469 M 134.992188 77.675781 C 134.734375 77.820312 134.765625 78.277344 135.054688 78.371094 C 135.328125 78.460938 135.625 78.324219 135.8125 78.125 C 135.84375 77.96875 135.835938 77.8125 135.847656 77.65625 C 135.566406 77.605469 135.253906 77.53125 134.992188 77.675781 Z M 134.992188 77.675781 "/>
<path style=" stroke:none;fill-rule:nonzero;fill:rgb(16.078431%,14.901961%,15.294118%);fill-opacity:1;" d="M 138.601562 76.484375 C 138.984375 75.835938 140.003906 75.703125 140.519531 76.261719 C 140.851562 76.640625 140.863281 77.171875 140.863281 77.648438 C 140.242188 77.652344 139.625 77.644531 139.003906 77.65625 C 139.082031 77.890625 139.15625 78.171875 139.40625 78.285156 C 139.835938 78.492188 140.324219 78.351562 140.765625 78.242188 C 140.757812 78.433594 140.753906 78.625 140.746094 78.816406 C 140.492188 78.878906 140.242188 78.949219 139.992188 79.019531 L 139.582031 79.019531 C 139.191406 78.882812 138.742188 78.742188 138.539062 78.34375 C 138.242188 77.773438 138.273438 77.035156 138.601562 76.484375 M 139.046875 77.082031 C 139.421875 77.097656 139.800781 77.101562 140.179688 77.078125 C 140.125 76.808594 140.003906 76.472656 139.675781 76.46875 C 139.3125 76.425781 139.117188 76.78125 139.046875 77.082031 Z M 139.046875 77.082031 "/>
<path style=" stroke:none;fill-rule:nonzero;fill:rgb(16.078431%,14.901961%,15.294118%);fill-opacity:1;" d="M 146.5625 75.980469 C 146.785156 75.984375 147.011719 75.984375 147.234375 75.984375 C 147.21875 76.695312 147.285156 77.414062 147.199219 78.125 C 147.113281 78.644531 146.601562 78.894531 146.144531 79.019531 L 145.792969 79.019531 C 145.34375 78.886719 144.835938 78.625 144.765625 78.105469 C 144.6875 77.402344 144.75 76.691406 144.730469 75.984375 C 144.957031 75.984375 145.179688 75.984375 145.40625 75.984375 C 145.414062 76.542969 145.402344 77.097656 145.410156 77.65625 C 145.414062 77.882812 145.429688 78.15625 145.640625 78.292969 C 145.847656 78.421875 146.144531 78.421875 146.351562 78.277344 C 146.542969 78.132812 146.550781 77.875 146.558594 77.65625 C 146.566406 77.097656 146.550781 76.539062 146.5625 75.980469 Z M 146.5625 75.980469 "/>
<path style=" stroke:none;fill-rule:nonzero;fill:rgb(16.078431%,14.901961%,15.294118%);fill-opacity:1;" d="M 148.46875 76.128906 C 148.894531 75.847656 149.433594 75.886719 149.902344 76.015625 C 149.90625 76.210938 149.910156 76.402344 149.914062 76.597656 C 149.527344 76.488281 149.023438 76.402344 148.730469 76.75 C 148.421875 77.164062 148.417969 77.839844 148.804688 78.207031 C 149.125 78.488281 149.578125 78.355469 149.957031 78.289062 C 149.953125 78.464844 149.953125 78.640625 149.957031 78.820312 C 149.789062 78.886719 149.617188 78.953125 149.453125 79.019531 L 149.0625 79.019531 C 148.648438 78.878906 148.191406 78.710938 147.992188 78.285156 C 147.648438 77.582031 147.773438 76.570312 148.46875 76.128906 Z M 148.46875 76.128906 "/>
<path style=" stroke:none;fill-rule:nonzero;fill:rgb(16.078431%,14.901961%,15.294118%);fill-opacity:1;" d="M 150.640625 76.105469 C 151.160156 75.914062 151.765625 75.804688 152.28125 76.0625 C 152.605469 76.214844 152.804688 76.566406 152.789062 76.921875 C 152.796875 77.582031 152.796875 78.238281 152.800781 78.894531 C 152.601562 78.894531 152.402344 78.890625 152.203125 78.890625 C 152.195312 78.820312 152.183594 78.679688 152.175781 78.609375 C 151.949219 78.761719 151.714844 78.90625 151.46875 79.019531 L 151.203125 79.019531 C 151.011719 78.929688 150.816406 78.847656 150.660156 78.703125 C 150.269531 78.292969 150.339844 77.519531 150.832031 77.21875 C 151.226562 76.957031 151.714844 77.050781 152.15625 77.09375 C 152.09375 76.886719 152.058594 76.613281 151.820312 76.535156 C 151.429688 76.394531 151.015625 76.542969 150.640625 76.65625 C 150.636719 76.472656 150.636719 76.289062 150.640625 76.105469 M 151.273438 77.675781 C 151.015625 77.820312 151.050781 78.28125 151.339844 78.371094 C 151.609375 78.460938 151.90625 78.324219 152.097656 78.125 C 152.125 77.96875 152.117188 77.808594 152.125 77.65625 C 151.847656 77.605469 151.535156 77.53125 151.273438 77.675781 Z M 151.273438 77.675781 "/>
<path style=" stroke:none;fill-rule:nonzero;fill:rgb(16.078431%,14.901961%,15.294118%);fill-opacity:1;" d="M 160.222656 76.101562 C 160.742188 75.914062 161.351562 75.804688 161.871094 76.070312 C 162.1875 76.222656 162.378906 76.570312 162.371094 76.921875 C 162.382812 77.578125 162.371094 78.234375 162.382812 78.894531 C 162.179688 78.890625 161.980469 78.890625 161.78125 78.890625 C 161.773438 78.820312 161.757812 78.679688 161.75 78.605469 C 161.527344 78.761719 161.296875 78.90625 161.050781 79.019531 L 160.789062 79.019531 C 160.59375 78.933594 160.398438 78.851562 160.246094 78.707031 C 159.828125 78.28125 159.929688 77.453125 160.472656 77.179688 C 160.855469 76.96875 161.308594 77.050781 161.722656 77.101562 C 161.667969 76.890625 161.648438 76.621094 161.410156 76.539062 C 161.019531 76.390625 160.601562 76.542969 160.21875 76.65625 C 160.21875 76.46875 160.21875 76.285156 160.222656 76.101562 M 160.863281 77.667969 C 160.589844 77.808594 160.625 78.289062 160.925781 78.375 C 161.214844 78.472656 161.484375 78.292969 161.699219 78.121094 C 161.695312 77.960938 161.691406 77.796875 161.691406 77.640625 C 161.417969 77.613281 161.121094 77.535156 160.863281 77.667969 Z M 160.863281 77.667969 "/>
<path style=" stroke:none;fill-rule:nonzero;fill:rgb(16.078431%,14.901961%,15.294118%);fill-opacity:1;" d="M 113.503906 75.984375 C 113.730469 75.984375 113.953125 75.984375 114.179688 75.984375 C 114.183594 76.953125 114.175781 77.917969 114.1875 78.882812 C 113.957031 78.894531 113.726562 78.890625 113.5 78.878906 C 113.511719 77.914062 113.5 76.949219 113.503906 75.984375 Z M 113.503906 75.984375 "/>
<path style=" stroke:none;fill-rule:nonzero;fill:rgb(16.078431%,14.901961%,15.294118%);fill-opacity:1;" d="M 126.3125 75.984375 C 126.546875 75.984375 126.785156 75.984375 127.019531 75.984375 C 127.257812 76.660156 127.503906 77.332031 127.707031 78.019531 C 127.964844 77.34375 128.15625 76.648438 128.425781 75.976562 C 128.660156 75.984375 128.894531 75.984375 129.128906 75.988281 C 128.773438 76.957031 128.414062 77.925781 128.058594 78.890625 C 127.832031 78.890625 127.609375 78.890625 127.390625 78.894531 C 127.023438 77.929688 126.664062 76.957031 126.3125 75.984375 Z M 126.3125 75.984375 "/>
<path style=" stroke:none;fill-rule:nonzero;fill:rgb(16.078431%,14.901961%,15.294118%);fill-opacity:1;" d="M 129.546875 75.988281 C 129.769531 75.984375 129.996094 75.984375 130.21875 75.980469 C 130.234375 76.949219 130.222656 77.921875 130.226562 78.890625 C 130 78.890625 129.777344 78.890625 129.550781 78.894531 C 129.542969 77.925781 129.550781 76.957031 129.546875 75.988281 Z M 129.546875 75.988281 "/>
<path style=" stroke:none;fill-rule:nonzero;fill:rgb(16.078431%,14.901961%,15.294118%);fill-opacity:1;" d="M 155.808594 78.898438 C 155.792969 77.925781 155.785156 76.949219 155.808594 75.976562 C 156.03125 75.980469 156.257812 75.988281 156.480469 75.996094 C 156.476562 76.957031 156.472656 77.917969 156.480469 78.882812 C 156.257812 78.886719 156.03125 78.894531 155.808594 78.898438 Z M 155.808594 78.898438 "/>
<path style=" stroke:none;fill-rule:nonzero;fill:rgb(16.078431%,14.901961%,15.294118%);fill-opacity:1;" d="M 156.898438 75.984375 C 157.132812 75.984375 157.371094 75.984375 157.609375 75.984375 C 157.851562 76.65625 158.074219 77.339844 158.308594 78.019531 C 158.53125 77.335938 158.761719 76.65625 159.003906 75.980469 C 159.238281 75.984375 159.476562 75.984375 159.714844 75.984375 C 159.359375 76.957031 159.003906 77.925781 158.640625 78.894531 C 158.417969 78.890625 158.195312 78.890625 157.972656 78.890625 C 157.609375 77.925781 157.25 76.957031 156.898438 75.984375 Z M 156.898438 75.984375 "/>
</g>
</svg>
